<svg width="330" height="70" viewBox="0 0 330 70" fill="none" xmlns="http://www.w3.org/2000/svg">
<path d="M2.86932 50V20.9091H21.5057V25.3267H8.1392V33.2244H20.2273V37.642H8.1392V50H2.86932ZM26.4098 50H20.7848L31.0263 20.9091H37.532L47.7876 50H42.1626L34.3928 26.875H34.1655L26.4098 50ZM26.5945 38.5938H41.9354V42.8267H26.5945V38.5938ZM61.0902 40.2273H65.8629L68.6896 43.892L70.7067 46.2784L75.5504 52.5H70.4368L67.1413 48.3239L65.7351 46.3352L61.0902 40.2273ZM76.2464 35.4545C76.2464 38.589 75.6593 41.2737 74.4851 43.5085C73.3203 45.7339 71.7294 47.4384 69.7124 48.6222C67.7048 49.8059 65.4273 50.3977 62.88 50.3977C60.3326 50.3977 58.0504 49.8059 56.0334 48.6222C54.0258 47.429 52.4349 45.7197 51.2607 43.4943C50.0959 41.2595 49.5135 38.5795 49.5135 35.4545C49.5135 32.3201 50.0959 29.6402 51.2607 27.4148C52.4349 25.1799 54.0258 23.4706 56.0334 22.2869C58.0504 21.1032 60.3326 20.5114 62.88 20.5114C65.4273 20.5114 67.7048 21.1032 69.7124 22.2869C71.7294 23.4706 73.3203 25.1799 74.4851 27.4148C75.6593 29.6402 76.2464 32.3201 76.2464 35.4545ZM70.9482 35.4545C70.9482 33.2481 70.6025 31.3873 69.9112 29.8722C69.2294 28.3475 68.2824 27.197 67.0703 26.4205C65.8582 25.6345 64.4614 25.2415 62.88 25.2415C61.2985 25.2415 59.9018 25.6345 58.6896 26.4205C57.4775 27.197 56.5258 28.3475 55.8345 29.8722C55.1527 31.3873 54.8118 33.2481 54.8118 35.4545C54.8118 37.661 55.1527 39.5265 55.8345 41.0511C56.5258 42.5663 57.4775 43.7169 58.6896 44.5028C59.9018 45.2794 61.2985 45.6676 62.88 45.6676C64.4614 45.6676 65.8582 45.2794 67.0703 44.5028C68.2824 43.7169 69.2294 42.5663 69.9112 41.0511C70.6025 39.5265 70.9482 37.661 70.9482 35.4545ZM106.999 28.9062C106.867 27.6657 106.308 26.6998 105.323 26.0085C104.348 25.3172 103.079 24.9716 101.516 24.9716C100.418 24.9716 99.4756 25.1373 98.6896 25.4688C97.9036 25.8002 97.3023 26.25 96.8857 26.8182C96.469 27.3864 96.2559 28.035 96.2464 28.7642C96.2464 29.3703 96.3838 29.8958 96.6584 30.3409C96.9425 30.786 97.326 31.1648 97.8089 31.4773C98.2919 31.7803 98.8269 32.036 99.4141 32.2443C100.001 32.4527 100.593 32.6278 101.19 32.7699L103.917 33.4517C105.015 33.7074 106.071 34.053 107.085 34.4886C108.107 34.9242 109.021 35.4735 109.826 36.1364C110.64 36.7992 111.284 37.5994 111.758 38.5369C112.231 39.4744 112.468 40.5729 112.468 41.8324C112.468 43.5369 112.032 45.0379 111.161 46.3352C110.29 47.6231 109.031 48.6316 107.383 49.3608C105.745 50.0805 103.761 50.4403 101.431 50.4403C99.1679 50.4403 97.2029 50.09 95.5362 49.3892C93.879 48.6884 92.5817 47.6657 91.6442 46.321C90.7161 44.9763 90.2143 43.3381 90.1385 41.4062H95.3232C95.3989 42.4195 95.7114 43.2623 96.2607 43.9347C96.8099 44.607 97.5249 45.1089 98.4055 45.4403C99.2957 45.7718 100.29 45.9375 101.388 45.9375C102.534 45.9375 103.538 45.767 104.4 45.4261C105.271 45.0758 105.953 44.5928 106.445 43.9773C106.938 43.3523 107.189 42.6231 107.198 41.7898C107.189 41.0322 106.966 40.4072 106.531 39.9148C106.095 39.4129 105.484 38.9962 104.698 38.6648C103.922 38.3239 103.013 38.0208 101.971 37.7557L98.6612 36.9034C96.2654 36.2879 94.3714 35.3551 92.9794 34.1051C91.5968 32.8456 90.9055 31.1742 90.9055 29.0909C90.9055 27.3769 91.3696 25.8759 92.2976 24.5881C93.2351 23.3002 94.5088 22.3011 96.1186 21.5909C97.7285 20.8712 99.5514 20.5114 101.587 20.5114C103.652 20.5114 105.46 20.8712 107.013 21.5909C108.576 22.3011 109.802 23.2907 110.692 24.5597C111.583 25.8191 112.042 27.268 112.07 28.9062H106.999ZM130.845 40.8239V28.1818H135.987V50H131.001V46.1222H130.774C130.282 47.3437 129.472 48.3428 128.345 49.1193C127.228 49.8958 125.85 50.2841 124.212 50.2841C122.782 50.2841 121.518 49.9669 120.419 49.3324C119.33 48.6884 118.478 47.7557 117.862 46.5341C117.247 45.303 116.939 43.8163 116.939 42.0739V28.1818H122.081V41.2784C122.081 42.661 122.46 43.7595 123.217 44.5739C123.975 45.3883 124.969 45.7955 126.2 45.7955C126.958 45.7955 127.692 45.6108 128.402 45.2415C129.112 44.8722 129.695 44.3229 130.149 43.5938C130.613 42.8551 130.845 41.9318 130.845 40.8239ZM141.275 58.1818V28.1818H146.332V31.7898H146.63C146.895 31.2595 147.269 30.696 147.752 30.0994C148.235 29.4934 148.888 28.9773 149.712 28.5511C150.536 28.1155 151.587 27.8977 152.866 27.8977C154.551 27.8977 156.071 28.3286 157.425 29.1903C158.789 30.0426 159.869 31.3068 160.664 32.983C161.469 34.6496 161.871 36.6951 161.871 39.1193C161.871 41.5152 161.478 43.5511 160.692 45.2273C159.906 46.9034 158.836 48.1818 157.482 49.0625C156.128 49.9432 154.594 50.3835 152.88 50.3835C151.63 50.3835 150.593 50.1752 149.769 49.7585C148.945 49.3419 148.282 48.84 147.781 48.2528C147.288 47.6562 146.905 47.0928 146.63 46.5625H146.417V58.1818H141.275ZM146.317 39.0909C146.317 40.5019 146.516 41.7377 146.914 42.7983C147.321 43.8589 147.904 44.6875 148.661 45.2841C149.428 45.8712 150.356 46.1648 151.445 46.1648C152.582 46.1648 153.533 45.8617 154.3 45.2557C155.067 44.6402 155.645 43.8021 156.033 42.7415C156.431 41.6714 156.63 40.4545 156.63 39.0909C156.63 37.7367 156.436 36.5341 156.048 35.483C155.659 34.4318 155.082 33.608 154.315 33.0114C153.548 32.4148 152.591 32.1165 151.445 32.1165C150.347 32.1165 149.414 32.4053 148.647 32.983C147.88 33.5606 147.298 34.3703 146.9 35.4119C146.512 36.4536 146.317 37.6799 146.317 39.0909ZM166.275 58.1818V28.1818H171.332V31.7898H171.63C171.895 31.2595 172.269 30.696 172.752 30.0994C173.235 29.4934 173.888 28.9773 174.712 28.5511C175.536 28.1155 176.587 27.8977 177.866 27.8977C179.551 27.8977 181.071 28.3286 182.425 29.1903C183.789 30.0426 184.869 31.3068 185.664 32.983C186.469 34.6496 186.871 36.6951 186.871 39.1193C186.871 41.5152 186.478 43.5511 185.692 45.2273C184.906 46.9034 183.836 48.1818 182.482 49.0625C181.128 49.9432 179.594 50.3835 177.88 50.3835C176.63 50.3835 175.593 50.1752 174.769 49.7585C173.945 49.3419 173.282 48.84 172.781 48.2528C172.288 47.6562 171.905 47.0928 171.63 46.5625H171.417V58.1818H166.275ZM171.317 39.0909C171.317 40.5019 171.516 41.7377 171.914 42.7983C172.321 43.8589 172.904 44.6875 173.661 45.2841C174.428 45.8712 175.356 46.1648 176.445 46.1648C177.582 46.1648 178.533 45.8617 179.3 45.2557C180.067 44.6402 180.645 43.8021 181.033 42.7415C181.431 41.6714 181.63 40.4545 181.63 39.0909C181.63 37.7367 181.436 36.5341 181.048 35.483C180.659 34.4318 180.082 33.608 179.315 33.0114C178.548 32.4148 177.591 32.1165 176.445 32.1165C175.347 32.1165 174.414 32.4053 173.647 32.983C172.88 33.5606 172.298 34.3703 171.9 35.4119C171.512 36.4536 171.317 37.6799 171.317 39.0909ZM200.792 50.4261C198.661 50.4261 196.815 49.9574 195.252 49.0199C193.69 48.0824 192.478 46.7708 191.616 45.0852C190.763 43.3996 190.337 41.4299 190.337 39.1761C190.337 36.9223 190.763 34.9479 191.616 33.2528C192.478 31.5578 193.69 30.2415 195.252 29.304C196.815 28.3665 198.661 27.8977 200.792 27.8977C202.923 27.8977 204.769 28.3665 206.332 29.304C207.894 30.2415 209.102 31.5578 209.954 33.2528C210.816 34.9479 211.246 36.9223 211.246 39.1761C211.246 41.4299 210.816 43.3996 209.954 45.0852C209.102 46.7708 207.894 48.0824 206.332 49.0199C204.769 49.9574 202.923 50.4261 200.792 50.4261ZM200.82 46.3068C201.976 46.3068 202.942 45.9896 203.718 45.3551C204.495 44.7112 205.072 43.8494 205.451 42.7699C205.839 41.6903 206.033 40.4877 206.033 39.1619C206.033 37.8267 205.839 36.6193 205.451 35.5398C205.072 34.4508 204.495 33.5843 203.718 32.9403C202.942 32.2964 201.976 31.9744 200.82 31.9744C199.637 31.9744 198.652 32.2964 197.866 32.9403C197.089 33.5843 196.507 34.4508 196.119 35.5398C195.74 36.6193 195.55 37.8267 195.55 39.1619C195.55 40.4877 195.74 41.6903 196.119 42.7699C196.507 43.8494 197.089 44.7112 197.866 45.3551C198.652 45.9896 199.637 46.3068 200.82 46.3068ZM215.611 50V28.1818H220.597V31.8182H220.824C221.222 30.5587 221.903 29.5881 222.869 28.9062C223.845 28.215 224.957 27.8693 226.207 27.8693C226.491 27.8693 226.809 27.8835 227.159 27.9119C227.519 27.9309 227.817 27.964 228.054 28.0114V32.7415C227.836 32.6657 227.491 32.5994 227.017 32.5426C226.553 32.4763 226.103 32.4432 225.668 32.4432C224.73 32.4432 223.887 32.6468 223.139 33.054C222.401 33.4517 221.818 34.0057 221.392 34.7159C220.966 35.4261 220.753 36.2453 220.753 37.1733V50H215.611ZM243.537 28.1818V32.1591H230.994V28.1818H243.537ZM234.091 22.9545H239.233V43.4375C239.233 44.1288 239.337 44.6591 239.545 45.0284C239.763 45.3883 240.047 45.6345 240.398 45.767C240.748 45.8996 241.136 45.9659 241.562 45.9659C241.884 45.9659 242.178 45.9422 242.443 45.8949C242.718 45.8475 242.926 45.8049 243.068 45.767L243.935 49.7869C243.66 49.8816 243.267 49.9858 242.756 50.0994C242.254 50.2131 241.638 50.2794 240.909 50.2983C239.621 50.3362 238.461 50.142 237.429 49.7159C236.397 49.2803 235.578 48.608 234.972 47.6989C234.375 46.7898 234.081 45.6534 234.091 44.2898V22.9545Z" fill="#323232"/>
<path d="M296.607 7.43127C296.815 7.23219 297.146 7.2397 297.345 7.44804C300.53 10.7816 300.41 16.0662 297.077 19.2515L275.37 39.9925C275.162 40.1916 274.832 40.1841 274.633 39.9758C271.447 36.6422 271.568 31.3576 274.901 28.1723L296.607 7.43127Z" fill="#FF003C"/>
<path d="M315.463 27.1642C315.671 26.9651 316.001 26.9726 316.2 27.181C319.386 30.5145 319.266 35.7991 315.932 38.9844L294.226 59.7254C294.018 59.9245 293.687 59.917 293.488 59.7087C290.303 56.3751 290.423 51.0905 293.757 47.9052L315.463 27.1642Z" fill="#FF003C"/>
<path d="M313.435 10.2267C313.644 10.0276 313.974 10.0351 314.173 10.2435C317.358 13.577 317.238 18.8616 313.905 22.0469L274.932 59.2865C274.724 59.4856 274.394 59.4781 274.195 59.2697C271.009 55.9362 271.13 50.6516 274.463 47.4663L313.435 10.2267Z" fill="#FF003C"/>
</svg>
