<svg width="137" height="136" viewBox="0 0 137 136" fill="none" xmlns="http://www.w3.org/2000/svg">
<path d="M73.3024 14.8207C73.7017 14.4392 74.3347 14.4536 74.7162 14.8529L74.8685 15.0122C80.9732 21.401 80.743 31.529 74.3542 37.6338L32.0556 78.0518C31.6563 78.4333 31.0233 78.4189 30.6418 78.0196L30.4896 77.8603C24.3848 71.4715 24.6151 61.3435 31.0039 55.2387L73.3024 14.8207Z" fill="#FF003C" fill-opacity="0.08"/>
<path d="M109.908 53.1288C110.307 52.7473 110.94 52.7617 111.322 53.161L111.474 53.3203C117.579 59.7091 117.348 69.8371 110.96 75.9419L68.6611 116.36C68.2618 116.741 67.6288 116.727 67.2473 116.328L67.095 116.168C60.9903 109.78 61.2205 99.6516 67.6093 93.5468L109.908 53.1288Z" fill="#FF003C" fill-opacity="0.08"/>
<path d="M105.97 20.2475C106.37 19.8659 107.003 19.8803 107.384 20.2796L107.536 20.4389C113.641 26.8277 113.411 36.9558 107.022 43.0605L31.2038 115.508C30.8045 115.89 30.1715 115.875 29.7899 115.476L29.6377 115.317C23.5329 108.928 23.7632 98.7999 30.152 92.6951L105.97 20.2475Z" fill="#FF003C" fill-opacity="0.08"/>
</svg>
