<svg width="71" height="70" viewBox="0 0 71 70" fill="none" xmlns="http://www.w3.org/2000/svg">
<path d="M37.6084 7.43127C37.8167 7.23219 38.147 7.2397 38.3461 7.44804C41.5314 10.7816 41.4113 16.0662 38.0777 19.2515L16.3717 39.9925C16.1633 40.1916 15.833 40.1841 15.634 39.9758C12.4486 36.6422 12.5688 31.3576 15.9023 28.1723L37.6084 7.43127Z" fill="#0096FA"/>
<path d="M56.4639 27.1639C56.6722 26.9649 57.0025 26.9724 57.2016 27.1807C60.3869 30.5142 60.2668 35.7988 56.9333 38.9842L35.2272 59.7252C35.0189 59.9243 34.6886 59.9168 34.4895 59.7084C31.3042 56.3749 31.4243 51.0903 34.7578 47.905L56.4639 27.1639Z" fill="#0096FA"/>
<path d="M54.4359 10.2269C54.6443 10.0278 54.9746 10.0354 55.1736 10.2437C58.359 13.5772 58.2388 18.8618 54.9053 22.0472L15.9331 59.2867C15.7247 59.4858 15.3945 59.4783 15.1954 59.27C12.01 55.9364 12.1302 50.6518 15.4637 47.4665L54.4359 10.2269Z" fill="#0096FA"/>
</svg>
