<svg width="20" height="20" viewBox="0 0 20 20" fill="none" xmlns="http://www.w3.org/2000/svg">
<path d="M10.6256 17.5C10.6256 17.6658 10.5598 17.8247 10.4426 17.9419C10.3254 18.0592 10.1664 18.125 10.0006 18.125H6.66732C5.61791 18.1237 4.61186 17.7062 3.86981 16.9642C3.12777 16.2221 2.71031 15.2161 2.70898 14.1667V5.83333C2.71031 4.78392 3.12777 3.77788 3.86981 3.03583C4.61186 2.29379 5.61791 1.87632 6.66732 1.875H10.0006C10.1664 1.875 10.3254 1.94085 10.4426 2.05806C10.5598 2.17527 10.6256 2.33424 10.6256 2.5C10.6256 2.66576 10.5598 2.82473 10.4426 2.94194C10.3254 3.05915 10.1664 3.125 10.0006 3.125H6.66732C5.94929 3.12588 5.26093 3.41151 4.75321 3.91923C4.24549 4.42695 3.95987 5.11531 3.95898 5.83333V14.1667C3.95987 14.8847 4.24549 15.5731 4.75321 16.0808C5.26093 16.5885 5.94929 16.8741 6.66732 16.875H10.0006C10.1664 16.875 10.3254 16.9408 10.4426 17.0581C10.5598 17.1753 10.6256 17.3342 10.6256 17.5ZM17.109 9.55833L13.7756 6.225C13.718 6.16533 13.649 6.11775 13.5727 6.08503C13.4964 6.05231 13.4144 6.03511 13.3314 6.03443C13.2484 6.03375 13.1662 6.0496 13.0894 6.08106C13.0126 6.11252 12.9428 6.15897 12.8842 6.21768C12.8255 6.27639 12.7791 6.34619 12.7477 6.42302C12.7163 6.49984 12.7006 6.58215 12.7013 6.66513C12.7021 6.74812 12.7194 6.83012 12.7522 6.90636C12.7849 6.9826 12.8326 7.05154 12.8923 7.10917L15.1581 9.375H8.33398C8.16822 9.375 8.00925 9.44085 7.89204 9.55806C7.77483 9.67527 7.70898 9.83424 7.70898 10C7.70898 10.1658 7.77483 10.3247 7.89204 10.4419C8.00925 10.5592 8.16822 10.625 8.33398 10.625H15.1581L12.8923 12.8917C12.7784 13.0095 12.7153 13.1673 12.7167 13.3312C12.718 13.4951 12.7837 13.6519 12.8995 13.7678C13.0153 13.8837 13.1721 13.9495 13.3359 13.951C13.4998 13.9526 13.6577 13.8896 13.7756 13.7758L17.109 10.4425C17.1671 10.3845 17.2131 10.3155 17.2446 10.2397C17.276 10.1638 17.2922 10.0825 17.2922 10.0004C17.2922 9.91831 17.276 9.837 17.2446 9.76115C17.2131 9.68529 17.1671 9.61638 17.109 9.55833Z" fill="#1F1F1F"/>
</svg>
