<svg width="30" height="30" viewBox="0 0 30 30" fill="none" xmlns="http://www.w3.org/2000/svg">
<path d="M23.7891 19.9805H6.21094C5.08008 19.9805 4.16016 20.9004 4.16016 22.0312C4.16016 23.1621 5.08008 24.082 6.21094 24.082H23.7891C24.9199 24.082 25.8398 23.1621 25.8398 22.0312C25.8398 20.9004 24.9199 19.9805 23.7891 19.9805ZM25.2539 22.0312C25.2539 22.8398 24.5977 23.4961 23.7891 23.4961H6.21094C5.40234 23.4961 4.74609 22.8398 4.74609 22.0312C4.74609 21.2227 5.40234 20.5664 6.21094 20.5664H23.7891C24.5977 20.5664 25.2539 21.2227 25.2539 22.0312ZM23.7891 5.91797H6.21094C5.08008 5.91797 4.16016 6.83789 4.16016 7.96875C4.16016 9.09961 5.08008 10.0195 6.21094 10.0195H23.7891C24.9199 10.0195 25.8398 9.09961 25.8398 7.96875C25.8398 6.83789 24.9199 5.91797 23.7891 5.91797ZM25.2539 7.96875C25.2539 8.77734 24.5977 9.43359 23.7891 9.43359H6.21094C5.40234 9.43359 4.74609 8.77734 4.74609 7.96875C4.74609 7.16016 5.40234 6.50391 6.21094 6.50391H23.7891C24.5977 6.50391 25.2539 7.16016 25.2539 7.96875ZM23.7891 12.9492H6.21094C5.08008 12.9492 4.16016 13.8691 4.16016 15C4.16016 16.1309 5.08008 17.0508 6.21094 17.0508H23.7891C24.9199 17.0508 25.8398 16.1309 25.8398 15C25.8398 13.8691 24.9199 12.9492 23.7891 12.9492ZM25.2539 15C25.2539 15.8086 24.5977 16.4648 23.7891 16.4648H6.21094C5.40234 16.4648 4.74609 15.8086 4.74609 15C4.74609 14.1914 5.40234 13.5352 6.21094 13.5352H23.7891C24.5977 13.5352 25.2539 14.1914 25.2539 15Z" fill="#1F1F1F"/>
</svg>
