<svg width="24" height="24" viewBox="0 0 24 24" fill="none" xmlns="http://www.w3.org/2000/svg">
<path d="M12.0244 5.34737C12.5715 5.33333 13.004 4.86166 12.9906 4.29386C12.9769 3.72608 12.5226 3.27716 11.9756 3.2912L12.0244 5.34737ZM4.88216 12.2627H5.87298C5.87298 12.255 5.8729 12.2473 5.87273 12.2395L4.88216 12.2627ZM4.88216 15.4397L4.93381 16.4668C5.46024 16.4382 5.87298 15.9868 5.87298 15.4397H4.88216ZM4.88216 19.6767L4.8305 20.7038C4.8477 20.7047 4.86493 20.7051 4.88216 20.7051V19.6767ZM8.99495 20.7051C9.54216 20.7051 9.98573 20.2447 9.98573 19.6767C9.98573 19.1088 9.54216 18.6483 8.99495 18.6483V20.7051ZM11.0092 4.31928C11.0092 4.88725 11.4528 5.34769 12 5.34769C12.5472 5.34769 12.9908 4.88725 12.9908 4.31928H11.0092ZM12.9908 1.0284C12.9908 0.460436 12.5472 0 12 0C11.4528 0 11.0092 0.460436 11.0092 1.0284H12.9908ZM12.0244 3.2912C11.4775 3.27716 11.0231 3.72608 11.0094 4.29386C10.996 4.86166 11.4285 5.33333 11.9756 5.34737L12.0244 3.2912ZM19.1179 12.2627L18.1272 12.2395C18.1271 12.2473 18.1271 12.255 18.1271 12.2627H19.1179ZM19.1179 15.4397H18.1271C18.1271 15.9868 18.5398 16.4382 19.0663 16.4668L19.1179 15.4397ZM19.1179 19.6767V20.7051C19.1351 20.7051 19.1523 20.7047 19.1696 20.7038L19.1179 19.6767ZM15.0051 18.6483C14.4579 18.6483 14.0143 19.1088 14.0143 19.6767C14.0143 20.2447 14.4579 20.7051 15.0051 20.7051V18.6483ZM9.98441 19.6804C9.98639 19.1125 9.54441 18.6504 8.9972 18.6483C8.44999 18.6463 8.00481 19.1051 8.00285 19.673L9.98441 19.6804ZM9.87344 22.0078L10.5966 21.3048L10.5949 21.303L9.87344 22.0078ZM14.1241 22.0078L13.4025 21.303L13.4009 21.3048L14.1241 22.0078ZM15.9946 19.673C15.9926 19.1051 15.5474 18.6463 15.0002 18.6483C14.453 18.6504 14.011 19.1125 14.0129 19.6804L15.9946 19.673ZM8.99238 18.6483C8.44515 18.6483 8.00156 19.1088 8.00156 19.6767C8.00156 20.2447 8.44515 20.7051 8.99238 20.7051V18.6483ZM15.0051 20.7051C15.5523 20.7051 15.9959 20.2447 15.9959 19.6767C15.9959 19.1088 15.5523 18.6483 15.0051 18.6483V20.7051ZM11.9756 3.2912C7.3808 3.40911 3.78697 7.45839 3.89159 12.2858L5.87273 12.2395C5.79161 8.49684 8.56893 5.43605 12.0244 5.34737L11.9756 3.2912ZM3.89134 12.2627V15.4397H5.87298V12.2627H3.89134ZM4.8305 14.4127C3.22267 14.4999 2 15.9043 2 17.5582H3.98164C3.98164 16.953 4.42214 16.4945 4.93381 16.4668L4.8305 14.4127ZM2 17.5582C2 19.2122 3.22267 20.6166 4.8305 20.7038L4.93381 18.6497C4.42213 18.622 3.98164 18.1635 3.98164 17.5582H2ZM4.88216 20.7051H8.99495V18.6483H4.88216V20.7051ZM12.9908 4.31928V1.0284H11.0092V4.31928H12.9908ZM11.9756 5.34737C15.4311 5.43605 18.2083 8.49684 18.1272 12.2395L20.1085 12.2858C20.2131 7.45839 16.6192 3.40911 12.0244 3.2912L11.9756 5.34737ZM18.1271 12.2627V15.4397H20.1087V12.2627H18.1271ZM19.0663 16.4668C19.5779 16.4945 20.0184 16.953 20.0184 17.5582H22C22 15.9043 20.7773 14.4999 19.1696 14.4127L19.0663 16.4668ZM20.0184 17.5582C20.0184 18.1635 19.5779 18.622 19.0663 18.6497L19.1696 20.7038C20.7773 20.6166 22 19.2122 22 17.5582H20.0184ZM19.1179 18.6483H15.0051V20.7051H19.1179V18.6483ZM8.00285 19.673C7.99897 20.8021 8.40861 21.8929 9.15187 22.7126L10.5949 21.303C10.204 20.8717 9.98243 20.2901 9.98441 19.6804L8.00285 19.673ZM9.15026 22.7108C9.89048 23.531 10.9184 24 11.9987 24V21.9432C11.4747 21.9432 10.9678 21.7161 10.5966 21.3048L9.15026 22.7108ZM11.9987 24C13.0791 24 14.107 23.531 14.8472 22.7108L13.4009 21.3048C13.0297 21.7161 12.5226 21.9432 11.9987 21.9432V24ZM14.8455 22.7126C15.5889 21.8929 15.9984 20.8021 15.9946 19.673L14.0129 19.6804C14.0151 20.2901 13.7935 20.8717 13.4025 21.303L14.8455 22.7126ZM8.99238 20.7051H15.0051V18.6483H8.99238V20.7051Z" fill="#1F1F1F"/>
</svg>
