<svg width="48" height="48" viewBox="0 0 48 48" fill="none" xmlns="http://www.w3.org/2000/svg">
<g clip-path="url(#clip0_165_299)">
<path d="M40.9531 23.875C40.9531 14.5781 33.2969 6.92188 24 6.92188C14.6348 6.92188 7.04688 14.5781 7.04688 23.875C7.04688 33.2402 14.6348 40.8281 24 40.8281C33.2969 40.8281 40.9531 33.2402 40.9531 23.875ZM22.0176 32.8984C21.6074 33.3086 20.8555 33.3086 20.4453 32.8984L13.3359 25.7891C12.9258 25.3789 12.9258 24.627 13.3359 24.2168L14.9082 22.7129C15.3184 22.2344 16.002 22.2344 16.4121 22.7129L21.2656 27.498L31.5195 17.2441C31.9297 16.7656 32.6133 16.7656 33.0234 17.2441L34.5957 18.748C35.0059 19.1582 35.0059 19.9102 34.5957 20.3203L22.0176 32.8984Z" fill="#CFCFCF"/>
</g>
<defs>
<clipPath id="clip0_165_299">
<rect width="48" height="48" fill="white"/>
</clipPath>
</defs>
</svg>
