<svg width="71" height="70" viewBox="0 0 71 70" fill="none" xmlns="http://www.w3.org/2000/svg">
<path d="M37.6071 7.43127C37.8155 7.23219 38.1458 7.2397 38.3448 7.44804C41.5302 10.7816 41.41 16.0662 38.0765 19.2515L16.3705 39.9925C16.1621 40.1916 15.8318 40.1841 15.6327 39.9758C12.4474 36.6422 12.5676 31.3576 15.9011 28.1723L37.6071 7.43127Z" fill="#FF003C"/>
<path d="M56.4626 27.1642C56.6709 26.9651 57.0012 26.9726 57.2003 27.181C60.3856 30.5145 60.2655 35.7991 56.932 38.9844L35.2259 59.7254C35.0176 59.9245 34.6873 59.917 34.4882 59.7087C31.3029 56.3751 31.423 51.0905 34.7566 47.9052L56.4626 27.1642Z" fill="#FF003C"/>
<path d="M54.4353 10.2267C54.6436 10.0276 54.9739 10.0351 55.173 10.2435C58.3583 13.577 58.2382 18.8616 54.9046 22.0469L15.9324 59.2865C15.7241 59.4856 15.3938 59.4781 15.1947 59.2697C12.0094 55.9362 12.1295 50.6516 15.463 47.4663L54.4353 10.2267Z" fill="#FF003C"/>
</svg>
