<svg width="24" height="24" viewBox="0 0 24 24" fill="none" xmlns="http://www.w3.org/2000/svg">
<g clip-path="url(#clip0_980_596)">
<path d="M11.9992 1.19995C6.03522 1.19995 1.19922 6.03595 1.19922 12C1.19922 17.964 6.03522 22.8 11.9992 22.8C17.9632 22.8 22.7992 17.964 22.7992 12C22.7992 6.03595 17.9632 1.19995 11.9992 1.19995ZM2.53122 12.816H5.54322C5.59122 13.908 5.74362 14.9928 5.99922 16.056H3.40722C2.92362 15.036 2.62722 13.9392 2.53122 12.816ZM12.8152 6.33595V2.62795C13.972 3.06715 14.9224 3.92395 15.4792 5.02795C15.7252 5.44435 15.9424 5.87755 16.1272 6.32395L12.8152 6.33595ZM16.6792 7.95595C16.9576 9.01555 17.1232 10.1016 17.1712 11.196H12.8152V7.95595H16.6792ZM11.1832 2.62795V6.33595H7.87122C8.05602 5.88955 8.27322 5.45635 8.51922 5.03995C9.07362 3.93115 10.0252 3.07195 11.1832 2.62795ZM11.1832 7.95595V11.196H6.83922C6.88722 10.1016 7.05282 9.01555 7.33122 7.95595H11.1832ZM5.54322 11.184H2.53122C2.62722 10.0608 2.92362 8.96395 3.40722 7.94395H5.99922C5.74362 9.00715 5.59122 10.092 5.54322 11.184ZM6.83922 12.816H11.1832V16.056H7.33122C7.05282 14.9964 6.88722 13.9104 6.83922 12.816ZM11.1952 17.616V21.324C10.0384 20.8848 9.08802 20.028 8.53122 18.924C8.28522 18.5076 8.06802 18.0744 7.88322 17.628L11.1952 17.616ZM12.8152 21.324V17.676H16.1272C15.9424 18.1224 15.7252 18.5556 15.4792 18.972C14.9224 20.076 13.972 20.9328 12.8152 21.372V21.324ZM12.8152 15.996V12.756H17.1592C17.1112 13.8504 16.9456 14.9364 16.6672 15.996H12.8152ZM18.4672 12.756H21.4792C21.3832 13.8792 21.0868 14.976 20.6032 15.996H17.9992C18.2512 14.952 18.4036 13.8876 18.4552 12.816L18.4672 12.756ZM18.4672 11.136C18.412 10.0632 18.256 8.99995 17.9992 7.95595H20.5912C21.0748 8.97595 21.3712 10.0728 21.4672 11.196L18.4672 11.136ZM19.6672 6.33595H17.5192C17.1304 5.24395 16.5676 4.22395 15.8512 3.31195C17.344 3.98395 18.6412 5.02315 19.6192 6.33595H19.6672ZM8.14722 3.31195C7.43082 4.22395 6.86802 5.24395 6.47922 6.33595H4.37922C5.35722 5.02315 6.65442 3.98395 8.14722 3.31195ZM4.36722 17.712H6.47922C6.86802 18.804 7.43082 19.824 8.14722 20.736C6.64962 20.0556 5.35122 19.002 4.37922 17.676L4.36722 17.712ZM15.8392 20.736C16.5556 19.824 17.1184 18.804 17.5072 17.712H19.6192C18.6352 19.008 17.3392 20.0316 15.8512 20.688L15.8392 20.736Z" fill="black"/>
</g>
<defs>
<clipPath id="clip0_980_596">
<rect width="24" height="24" fill="white"/>
</clipPath>
</defs>
</svg>
