<svg width="24" height="24" viewBox="0 0 24 24" fill="none" xmlns="http://www.w3.org/2000/svg">
<g clip-path="url(#clip0_981_627)">
<path d="M9.75148 11.5V9.05884H3.86964V11.5H0V12.5H3.86964V14.9409H9.75148V12.5H24V11.5H9.75148ZM8.7515 13.9409H4.86962V10.0588H8.75144V13.9409H8.7515Z" fill="black"/>
<path d="M18.4077 20.2253V17.7844H12.5259V20.2253H0V21.2253H12.5259V23.6665H18.4077V21.2253H24V20.2253H18.4077ZM17.4077 22.6665H13.5259V18.7844H17.4077V22.6665Z" fill="black"/>
<path d="M13.4849 2.77445V0.333496H7.60257V2.7744H0V3.77439H7.60257V6.21554H13.4849V3.77444H24V2.77445H13.4849ZM12.4849 5.21561H8.60255V1.33353H12.4849V5.21561Z" fill="black"/>
</g>
<defs>
<clipPath id="clip0_981_627">
<rect width="24" height="24" fill="white"/>
</clipPath>
</defs>
</svg>
