<svg width="24" height="24" viewBox="0 0 24 24" fill="none" xmlns="http://www.w3.org/2000/svg">
<path d="M9.00042 12.95C8.99509 12.6958 9.04057 12.4432 9.13417 12.2068C9.22776 11.9704 9.36761 11.7551 9.5455 11.5735C9.7234 11.3919 9.93576 11.2476 10.1701 11.1491C10.4045 11.0506 10.6562 10.9999 10.9104 11C11.1646 10.9999 11.4163 11.0506 11.6507 11.1491C11.8851 11.2476 12.0974 11.3919 12.2753 11.5735C12.4532 11.7551 12.5931 11.9704 12.6867 12.2068C12.7803 12.4432 12.8257 12.6958 12.8204 12.95V13.12C12.819 13.6262 12.6178 14.1114 12.2604 14.47L11.4704 15.26C11.1233 15.605 10.9227 16.0707 10.9104 16.56V16.72" stroke="#1F1F1F" stroke-miterlimit="10" stroke-linejoin="round"/>
<path d="M12 3.41L10.09 1.5H1.50003V20.59C1.4987 20.8412 1.5472 21.0902 1.64272 21.3225C1.73823 21.5548 1.87887 21.7659 2.0565 21.9435C2.23412 22.1212 2.44521 22.2618 2.67754 22.3573C2.90987 22.4528 3.15883 22.5013 3.41003 22.5H20.59C20.8412 22.5013 21.0902 22.4528 21.3225 22.3573C21.5548 22.2618 21.7659 22.1212 21.9436 21.9435C22.1212 21.7659 22.2618 21.5548 22.3573 21.3225C22.4529 21.0902 22.5014 20.8412 22.5 20.59V3.41H12Z" stroke="#1F1F1F" stroke-miterlimit="10" stroke-linejoin="round"/>
<path d="M1.5 7.23047H22.5" stroke="#1F1F1F" stroke-miterlimit="10"/>
<rect x="11" y="18" width="1" height="1" fill="#1F1F1F"/>
</svg>
