<svg width="24" height="24" viewBox="0 0 24 24" fill="none" xmlns="http://www.w3.org/2000/svg">
<path d="M17.002 13C17.5543 13 18.002 13.4477 18.002 14C18.002 14.5128 17.616 14.9355 17.1186 14.9933L17.002 15H5.417L8.70911 18.2929C9.06959 18.6534 9.09732 19.2206 8.7923 19.6129L8.70911 19.7071C8.34863 20.0676 7.7814 20.0953 7.3891 19.7903L7.2949 19.7071L2.2949 14.7071C1.69232 14.1045 2.07434 13.0928 2.88837 13.006L3.002 13H17.002ZM16.6129 4.2097L16.7071 4.29289L21.7071 9.29289C22.3097 9.89547 21.9277 10.9072 21.1136 10.994L21 11H7C6.44771 11 6 10.5523 6 10C6 9.48716 6.38604 9.06449 6.88338 9.00673L7 9H18.585L15.2929 5.70711C14.9324 5.34662 14.9047 4.77939 15.2097 4.3871L15.2929 4.29289C15.6534 3.93241 16.2206 3.90468 16.6129 4.2097Z" fill="black"/>
</svg>
